<?xml version="1.0" encoding="UTF-8" standalone="no"?>
<!-- Created with Inkscape (http://www.inkscape.org/) -->

<svg
   width="210mm"
   height="297mm"
   viewBox="0 0 210 297"
   version="1.1"
   id="svg5"
   xml:space="preserve"
   inkscape:version="1.2.2 (732a01da63, 2022-12-09)"
   sodipodi:docname="wizzard.svg"
   inkscape:export-filename="wizzard.png"
   inkscape:export-xdpi="96"
   inkscape:export-ydpi="96"
   xmlns:inkscape="http://www.inkscape.org/namespaces/inkscape"
   xmlns:sodipodi="http://sodipodi.sourceforge.net/DTD/sodipodi-0.dtd"
   xmlns:xlink="http://www.w3.org/1999/xlink"
   xmlns="http://www.w3.org/2000/svg"
   xmlns:svg="http://www.w3.org/2000/svg"><sodipodi:namedview
     id="namedview7"
     pagecolor="#ffffff"
     bordercolor="#000000"
     borderopacity="0.25"
     inkscape:showpageshadow="2"
     inkscape:pageopacity="0.0"
     inkscape:pagecheckerboard="0"
     inkscape:deskcolor="#d1d1d1"
     inkscape:document-units="mm"
     showgrid="false"
     inkscape:zoom="1.0444209"
     inkscape:cx="340.85874"
     inkscape:cy="0"
     inkscape:window-width="1920"
     inkscape:window-height="1009"
     inkscape:window-x="1912"
     inkscape:window-y="-8"
     inkscape:window-maximized="1"
     inkscape:current-layer="layer1" /><defs
     id="defs2"><linearGradient
       inkscape:collect="always"
       id="linearGradient23466"><stop
         style="stop-color:#ffffff;stop-opacity:1;"
         offset="0"
         id="stop23462" /><stop
         style="stop-color:#ffffff;stop-opacity:0;"
         offset="1"
         id="stop23464" /></linearGradient><linearGradient
       inkscape:collect="always"
       id="linearGradient19753"><stop
         style="stop-color:#fea900;stop-opacity:1;"
         offset="0"
         id="stop19749" /><stop
         style="stop-color:#a9700c;stop-opacity:1;"
         offset="0.57114226"
         id="stop19751" /></linearGradient><linearGradient
       inkscape:collect="always"
       id="linearGradient14843"><stop
         style="stop-color:#4289c1;stop-opacity:1;"
         offset="0.51903808"
         id="stop14839" /><stop
         style="stop-color:#94bddc;stop-opacity:1;"
         offset="1"
         id="stop14841" /></linearGradient><linearGradient
       inkscape:collect="always"
       id="linearGradient7246"><stop
         style="stop-color:#acb1b3;stop-opacity:1;"
         offset="0"
         id="stop7242" /><stop
         style="stop-color:#f5f5f5;stop-opacity:1"
         offset="1"
         id="stop7244" /></linearGradient><radialGradient
       inkscape:collect="always"
       xlink:href="#linearGradient7246"
       id="radialGradient7248"
       cx="286.09503"
       cy="119.3026"
       fx="286.09503"
       fy="119.3026"
       r="33.055565"
       gradientTransform="matrix(0.65301706,-0.7573432,0.79703185,0.68723848,-185.80298,276.52911)"
       gradientUnits="userSpaceOnUse" /><linearGradient
       inkscape:collect="always"
       xlink:href="#linearGradient14843"
       id="linearGradient14845"
       x1="239.53058"
       y1="34.550446"
       x2="343.1391"
       y2="34.550446"
       gradientUnits="userSpaceOnUse"
       gradientTransform="translate(-194.55757,20.266414)" /><linearGradient
       inkscape:collect="always"
       xlink:href="#linearGradient19753"
       id="linearGradient19755"
       x1="234.16741"
       y1="79.2402"
       x2="249.24055"
       y2="79.2402"
       gradientUnits="userSpaceOnUse"
       gradientTransform="translate(-194.55757,20.266414)" /><radialGradient
       inkscape:collect="always"
       xlink:href="#linearGradient23466"
       id="radialGradient23470"
       cx="221.04825"
       cy="16.121834"
       fx="221.04825"
       fy="16.121834"
       r="4.7539206"
       gradientUnits="userSpaceOnUse"
       gradientTransform="matrix(1.7323271,0,0,1.7323271,-337.97396,8.7260179)" /></defs><g
     inkscape:label="Layer 1"
     inkscape:groupmode="layer"
     id="layer1"><g
       id="g25777"
       transform="matrix(0.18268854,0,0,0.18268854,9.6604346,4.7961737)"><path
         style="fill:#292f33;fill-opacity:1;stroke:none;stroke-width:1;stroke-dasharray:none;stroke-opacity:1"
         d="m 126.66318,83.224101 -0.50666,1.45665 -0.69666,0.759989 0.25333,15.51647 2.34331,-0.31666 4.17994,-1.01332 5.38327,-1.583314 4.24328,-1.456648 3.29329,-1.583314 1.64665,-1.393314 1.13999,-1.266651 0.44332,-0.886656 0.12667,-1.139986 -0.25333,-1.393317 z"
         id="path15904" /><path
         style="fill:#292f33;fill-opacity:1;stroke:none;stroke-width:1;stroke-dasharray:none;stroke-opacity:1"
         d="m 61.495897,83.852287 -7.09324,1.519981 -6.58658,1.646647 -2.78664,0.886654 v 8.613227 l 3.03997,1.013319 5.57326,1.646648 3.67329,0.886657 6.58658,0.75999 2.02664,-17.859779 z"
         id="path15549" /><path
         style="fill:#4289c1;fill-opacity:1;stroke:#1b2c7f;stroke-width:1;stroke-dasharray:none;stroke-opacity:1"
         d="m 72.257637,121.98492 h 53.918573 l 6.44874,0.35826 5.37394,1.79131 2.8661,2.14958 3.9409,3.22437 2.68697,3.94089 1.97044,5.55308 0.71653,4.47828 v 3.76177 3.04523 1.25392 l -55.709893,-0.17913 h -57.50121 l -0.17913,-5.73221 v -5.01568 l 0.17913,-2.32871 1.07479,-1.79131 19.8836,-10.74789 4.47829,-2.32871 4.47828,-1.43305 z"
         id="path2580" /><path
         style="fill:#ffdc5d;fill-opacity:1;stroke:#000000;stroke-width:0.132292"
         d="m 63.332547,82.838967 7.09324,-1.393317 5.69993,-0.506661 8.99322,-0.759989 7.34657,-0.253331 10.639873,0.126664 11.52653,1.013322 9.75321,1.519981 2.5333,0.633325 -0.75999,0.75999 1.39331,0.886655 1.64665,1.393317 0.88666,1.899976 v 2.406637 l 0.12666,3.039962 -1.01332,2.406636 -1.13999,2.026642 -1.01331,1.266651 -0.38,0.759993 -3.16663,1.13998 -0.75999,3.54662 -0.75999,3.2933 -1.13999,3.03996 -1.39331,2.5333 -1.39332,2.40663 c 0,0 -1.39331,1.77331 -1.89997,2.53331 -0.50666,0.75998 -2.15331,2.1533 -2.15331,2.1533 l -3.16663,1.64665 -3.92662,1.39331 -6.07992,1.64665 -4.686613,0.38 -2.78663,-0.25333 -4.30661,-0.76 -3.92662,-1.39331 -3.16663,-1.64665 -2.65996,-1.26665 -3.2933,-1.77331 -2.91329,-2.40664 -2.27997,-2.78662 -1.89998,-2.15331 -0.88666,-1.26665 -1.13998,-3.16663 -1.01332,-2.02664 -1.13999,-2.5333 -1.01332,-1.77331 -1.39331,-1.013323 -1.13999,-0.886655 -1.51998,-1.899976 -0.63333,-2.533303 -0.50666,-2.659965 v -2.659967 l 0.50666,-1.519981 0.88666,-1.773312 1.64664,-1.139986 1.26665,-0.506661 h 1.39332 z"
         id="path1664" /><circle
         style="fill:#404040;fill-opacity:1;stroke:#000000;stroke-width:0.134211"
         id="path2841"
         cx="83.219559"
         cy="89.91526"
         r="4.4328942" /><circle
         style="fill:#404040;fill-opacity:1;stroke:#000000;stroke-width:0.134211"
         id="path2841-2"
         cx="105.78706"
         cy="89.91526"
         r="4.4328942" /><path
         style="fill:#ffffff;fill-opacity:1;stroke:#000000;stroke-width:0.132;stroke-dasharray:none"
         d="m 76.737057,84.494464 3.76176,-1.612186 h 2.50784 l 3.94089,0.89566 2.68697,0.537393 1.25392,-1.074788 -0.35826,-1.253921 -2.32871,-2.149579 -1.79131,-1.074787 -3.4035,-0.537396 -3.76176,0.358265 -2.50784,1.433052 -1.79131,1.433052 -0.5374,1.253919 0.71653,1.433052 z"
         id="path5354" /><path
         style="fill:#c1694f;fill-opacity:1;stroke:#000000;stroke-width:0.132292"
         d="m 90.440617,96.600792 5.19481,-0.179131 h 3.22436 l 1.0748,0.358265 -0.5374,2.149578 -1.43305,1.253916 -1.79132,0.89566 h -1.61218 -1.43305 l -1.43305,-0.71653 -1.43306,-1.61218 -0.35826,-1.253918 z"
         id="path6122" /><path
         style="fill:#c1694f;fill-opacity:1;stroke:#000000;stroke-width:0.132292"
         d="m 95.098027,104.45821 -10.92701,0.35826 v 3.76176 l 0.89565,1.79132 1.79132,0.71652 16.300963,-0.35826 1.79132,-0.53739 1.07479,-1.97045 -0.17913,-2.14958 -0.35827,-1.43305 z"
         id="path6525" /><path
         style="fill:#ffffff;fill-opacity:1;stroke:#000000;stroke-width:0.132;stroke-dasharray:none;stroke-opacity:1"
         d="m 101.51113,79.648427 -1.646653,1.26665 -1.01332,0.886656 -0.25333,1.013322 0.50666,1.01332 1.266653,0.633325 2.15331,-0.759989 3.79995,-0.886656 h 1.89998 l 3.03996,0.633326 1.64665,0.759989 1.13998,0.126666 0.75999,-0.633325 0.12667,-1.013322 -0.75999,-1.139987 -1.77331,-1.26665 -2.65997,-1.393314 -2.27997,-0.633326 -2.27997,0.126664 -2.15331,0.253331 z"
         id="path11211" /><path
         style="fill:#ffeb3b;fill-opacity:1;stroke:none;stroke-width:1;stroke-dasharray:none;stroke-opacity:1"
         d="m 63.123067,134.01491 -0.44783,3.4035 -2.8661,1.25391 2.77654,1.34349 0.53739,3.22437 2.32871,-2.41828 3.1348,0.71653 -1.34348,-2.77654 1.34348,-2.8661 -3.1348,0.44783 z"
         id="path14964" /><path
         style="fill:#ffeb3b;fill-opacity:1;stroke:none;stroke-width:1;stroke-dasharray:none;stroke-opacity:1"
         d="m 107.60385,141.05221 -0.44783,3.4035 -2.8661,1.25391 2.77654,1.34349 0.53739,3.22437 2.32871,-2.41828 3.1348,0.71653 -1.34348,-2.77654 1.34348,-2.8661 -3.1348,0.44783 z"
         id="path14964-4" /><path
         style="fill:#ffeb3b;fill-opacity:1;stroke:none;stroke-width:0.71107;stroke-dasharray:none;stroke-opacity:1"
         d="m 77.147937,143.90294 -1.48584,1.93666 -2.21077,-0.24683 1.23215,1.81449 -0.81545,2.17664 2.29381,-0.66125 1.67568,1.55578 0.15983,-2.18746 1.84632,-1.28731 -2.08964,-0.83875 z"
         id="path14964-3" /><path
         id="path2142"
         style="fill:url(#radialGradient7248);fill-opacity:1;stroke:#b3b3b3;stroke-width:1;stroke-dasharray:none;stroke-opacity:1"
         d="m 114.98188,78.663109 -2.32906,0.179317 1.43299,2.14974 1.97042,1.970422 2.32906,1.432988 2.14922,0.895552 1.97042,0.179318 -1.61179,2.507857 -0.89607,3.224092 v 2.687175 l 0.35864,3.40341 0.35812,2.687174 0.71675,2.149226 0.71623,1.6123 -2.50785,0.71675 -1.25367,0.71624 -1.25419,1.43299 -2.14922,-1.61231 -2.32906,-1.7911 -3.58273,-1.61231 -3.22409,-1.25367 -2.50786,-0.537433 h -2.50786 l -2.149743,0.179317 -2.68665,1.611786 -1.07487,1.25419 -0.53744,0.71623 -1.07487,-1.61178 -1.7911,-1.43351 -3.04529,-0.89555 -3.22461,-0.178801 -3.94085,0.716231 -3.58273,1.61231 -2.32854,1.6123 -1.97042,1.61179 -1.43299,1.25419 -1.6123,-1.07487 -1.25367,-0.71624 -1.25419,-0.53743 -0.89555,-0.17932 1.25367,-2.32854 0.71675,-2.149738 0.17932,-3.045292 V 92.8147 l -0.35864,-3.40341 -0.71623,-2.329056 -1.07487,-1.611788 h 2.86597 l 3.0453,-1.07487 2.50785,-1.07487 1.79111,-1.612305 0.89607,-0.716235 1.43299,-1.970422 h -5.91127 l -5.37435,0.537435 -3.04529,0.716235 -2.68666,0.358118 0.35812,1.254187 1.43299,2.149739 -1.43299,1.970423 -0.89555,2.865974 -0.17932,2.686658 -0.1788,2.507857 0.1788,3.582727 0.71675,3.403413 0.89555,2.50785 0.89556,1.25419 1.07487,0.89555 0.17931,1.79111 v 2.68717 l 0.53744,1.43299 0.71623,1.07487 0.71675,0.71675 0.35812,0.71624 -0.71623,1.79162 v 1.79111 l 0.1788,1.97042 0.17931,2.50785 0.71624,1.97042 1.25419,1.97042 0.89555,1.43299 v 1.97042 l 0.71675,2.86649 1.25367,2.50734 1.79111,1.43351 1.6123,0.53743 1.61231,0.1788 0.35811,3.22461 1.97043,2.86598 2.50785,1.43299 h 1.97043 l 3.04529,-0.53744 2.32906,1.97042 3.04477,1.25419 h 3.04529 l 2.32906,-0.53743 2.686663,-1.43299 1.25418,-1.43351 1.61231,0.53744 h 2.68666 l 2.32854,-0.71624 1.4335,-0.89555 1.07435,-1.6123 0.35864,-2.68718 v -1.43299 l 1.97042,-0.1788 2.32854,-1.25418 1.43299,-1.79111 1.43299,-2.50786 0.17931,-4.29947 1.97043,-2.68666 1.07487,-3.58273 0.17931,-2.68716 -0.53743,-3.40341 -0.53744,-0.89556 1.43299,-0.71675 1.07487,-2.14922 0.1788,-3.22461 v -2.32854 l 1.79162,-0.89556 1.07487,-2.32905 0.71624,-3.224096 -0.17932,-4.657596 -0.35812,-5.55315 -0.89555,-3.045292 -0.53744,-0.895553 1.25419,-1.432987 1.07435,-0.895553 -5.37383,-2.329056 z m -20.779613,26.511561 1.97042,0.89555 0.53743,0.71675 2.86598,0.35812 h 3.762043 l 4.6576,0.89555 6.6275,1.97043 -0.89555,1.25418 -1.97042,1.97043 -2.14974,1.25367 -2.50786,1.25419 -1.97042,-0.35812 -1.61179,-0.89607 -2.14974,-1.25367 -1.970423,-1.43299 -2.68718,-1.25419 -2.32854,-0.1788 -2.68717,0.53744 -2.86598,0.89555 -3.04529,1.97042 -1.6123,1.25367 -1.43299,0.17932 -1.25367,-0.35812 -1.61231,-0.71675 -2.68717,-1.79111 -2.50786,-1.97042 2.86649,-1.07487 2.32854,-0.71675 3.22461,-1.43299 2.86598,-0.1788 3.40341,0.1788 3.04529,-0.53743 z" /><path
         style="fill:url(#linearGradient14845);fill-opacity:1;stroke:#1b2b7f;stroke-width:1;stroke-dasharray:none;stroke-opacity:1"
         d="m 93.113427,20.212403 -2.27998,2.533302 -2.65996,4.939938 -6.33326,11.906518 -9.75321,20.013084 -6.96658,15.833134 -6.58658,1.139987 -7.34658,2.27997 -5.57326,2.659967 -0.12667,5.95326 6.58659,-1.899975 8.86655,-1.899979 8.86656,-1.646645 9.24655,-1.013319 10.38654,-0.506661 h 10.5132 l 7.726573,0.506661 10.38653,1.139983 7.47324,1.266653 6.33326,1.393315 8.61322,2.279973 7.34658,2.27997 -0.75999,-2.533301 -2.27997,-2.913298 -4.30662,-2.786631 -4.55994,-1.899976 -5.31993,-1.899978 -7.09325,-1.646645 -2.1533,-0.379995 -10.76653,-22.926381 -6.71325,-13.933159 -6.586593,-12.539844 -2.91329,-4.559942 z"
         id="path1662" /><path
         style="fill:#ffeb3b;fill-opacity:1;stroke:none;stroke-width:0.71107;stroke-dasharray:none;stroke-opacity:1"
         d="m 127.54553,130.09058 -1.48584,1.93666 -2.21077,-0.24683 1.23215,1.81449 -0.81545,2.17664 2.29381,-0.66125 1.67568,1.55578 0.15983,-2.18746 1.84632,-1.28731 -2.08964,-0.83875 z"
         id="path14964-3-7" /><path
         style="fill:#ffeb3b;fill-opacity:1;stroke:none;stroke-width:0.71107;stroke-dasharray:none;stroke-opacity:1"
         d="m 83.596667,54.59628 -1.48584,1.93666 -2.21077,-0.24683 1.23215,1.81449 -0.81545,2.17664 2.29381,-0.66125 1.67568,1.55578 0.15983,-2.18746 1.84632,-1.28731 -2.08964,-0.83875 z"
         id="path14964-3-7-4" /><path
         style="fill:#ffeb3b;fill-opacity:1;stroke:none;stroke-width:0.471956;stroke-dasharray:none;stroke-opacity:1"
         d="m 139.05297,143.05026 -1.58171,0.35077 -1.01875,-1.0687 -0.14765,1.44826 -1.34324,0.75878 1.44839,0.64242 0.18824,1.50593 1.01451,-1.04401 1.48795,0.13318 -0.70462,-1.31797 z"
         id="path14964-3-7-6" /><path
         style="fill:#ffeb3b;fill-opacity:1;stroke:none;stroke-width:0.471956;stroke-dasharray:none;stroke-opacity:1"
         d="m 100.16508,40.83982 -1.581713,0.35077 -1.01875,-1.0687 -0.14765,1.44826 -1.34324,0.75878 1.44839,0.64242 0.18824,1.50593 1.01451,-1.04401 1.487953,0.13318 -0.704623,-1.31797 z"
         id="path14964-3-7-6-2" /><path
         style="fill:#ffeb3b;fill-opacity:1;stroke:none;stroke-width:1;stroke-dasharray:none;stroke-opacity:1"
         d="m 106.20419,62.944491 -0.44783,3.4035 -2.8661,1.25391 2.77654,1.34349 0.53739,3.224373 2.32871,-2.41828 3.1348,0.71653 -1.34348,-2.776543 1.34348,-2.8661 -3.1348,0.44783 z"
         id="path14964-0" /><path
         style="fill:#ffeb3b;fill-opacity:1;stroke:none;stroke-width:0.297257;stroke-dasharray:none;stroke-opacity:1"
         d="m 74.288747,71.384689 -0.99622,0.22093 -0.64166,-0.673112 -0.093,0.912174 -0.84603,0.477911 0.91226,0.404623 0.11856,0.948495 0.63898,-0.657561 0.93717,0.08388 -0.4438,-0.830109 z"
         id="path14964-3-7-6-1" /><path
         style="fill:url(#linearGradient19755);fill-opacity:1;stroke:#995c00;stroke-width:0.5;stroke-dasharray:none;stroke-opacity:1"
         d="m 39.609837,47.763923 3.79995,14.059826 v 89.552211 l 7.34658,0.12667 -0.12667,-89.552217 4.05328,-14.43982 z"
         id="path18367" /><g
         id="g18311"
         transform="matrix(-0.7656186,0,0,0.7656186,20.997447,11.786349)"><path
           style="fill:#ffdc5d;fill-opacity:1;stroke:#eda600;stroke-width:2;stroke-dasharray:none;stroke-opacity:1"
           d="m -28.056317,140.40825 -4.369946,-1.07666 -3.039961,-0.25333 -3.48329,0.38 -3.293292,0.88665 -1.646648,1.01332 -1.836642,1.45665 -1.773312,1.51998 -1.139986,1.58332 -0.759989,1.20331 -0.823325,1.83665 -0.696656,1.51998 -0.316664,1.32998 -0.253331,2.34331 -0.25333,2.59663 v 1.58332 l 0.19,1.01332 0.633325,1.89997 0.443328,1.01332 0.823322,0.94999 1.963309,1.13999 2.659968,0.94999 3.609953,0.50666 4.243282,0.31666 3.419956,-0.12667 2.97663,-0.31666 h 1.583313 2.469969 l 1.583314,-0.75999 0.886656,-0.56999 0.50666,-1.07666 0.189998,-1.01332 -0.126666,-1.32998 -0.316662,-0.94999 0.949988,-0.56999 0.75999,-1.13999 0.25333,-1.51998 v -1.32998 l -0.443327,-1.13999 -0.633326,-0.88665 -0.379995,-0.19 1.013321,-1.20332 0.50666,-1.39332 v -1.70997 l -0.316663,-0.94999 -0.50666,-0.82333 0.886655,-1.07665 0.253331,-1.51998 -0.253331,-1.26665 -0.823322,-1.07665 -1.203319,-0.69666 -1.836644,-0.63333 z"
           id="path15971" /><path
           style="fill:#eda600;fill-opacity:1;stroke:none;stroke-width:2;stroke-dasharray:none;stroke-opacity:1"
           d="m -43.586839,157.17729 2.104795,-0.85087 1.477836,-1.07479 0.716526,-1.11958 0.716526,-1.34348 0.179131,-1.20914 0.223914,-1.61218 0.13435,-1.20914 0.268695,-0.89566 0.806093,-1.03 1.209138,-0.94044 1.388268,-0.5374 1.5674,-0.26869 1.612184,0.13434 1.343486,0.40305 1.433052,0.44783 1.298703,0.35826 1.119572,0.0896 1.164355,-0.0448 1.030006,-0.31348 1.209137,-0.44783 -0.31348,1.61219 0.08957,1.38827 -1.433052,-0.67175 -0.850875,-0.0896 -1.522617,-0.0896 -0.850875,-0.17913 -1.074789,-0.17913 -1.656966,-0.22392 h -1.209137 -1.119572 -0.850874 l -0.806093,0.17914 -0.582176,0.49261 -0.268697,0.40304 -0.313481,0.44783 0.04478,0.94044 -0.134347,0.85088 -0.134351,1.03 -0.268697,1.07479 -0.358262,0.94044 -0.671742,1.03001 -0.403048,0.67174 -1.074788,0.94044 -1.119571,0.89566 -1.8361,0.40304 -1.253919,-0.13434 z"
           id="path17893" /></g><circle
         style="fill:#55acee;fill-opacity:1;stroke:#4289c1;stroke-width:0.508362;stroke-dasharray:none;stroke-opacity:1"
         id="path22623"
         cx="47.376389"
         cy="40.435593"
         r="11.745819" /><circle
         style="fill:#ffffff;fill-opacity:1;stroke:none;stroke-width:0.489569;stroke-dasharray:none;stroke-opacity:1"
         id="path23438"
         cx="44.733795"
         cy="36.247154"
         r="4.0302572" /><circle
         style="fill:url(#radialGradient23470);fill-opacity:1;stroke:none;stroke-width:1.00037;stroke-dasharray:none;stroke-opacity:1"
         id="path23438-2"
         cx="44.953949"
         cy="36.654305"
         r="8.2353458" /></g></g></svg>
